<svg xmlns="http://www.w3.org/2000/svg" viewBox="0 0 800 800" width="800" height="800"><rect width="800" height="800" fill="#f3f1ea"/><rect x="170" y="90" width="460" height="620" fill="#2743d0"/><rect x="190" y="110" width="420" height="580" fill="none" stroke="#f3f1ea" stroke-width="3"/><g transform="translate(400 460) scale(0.85)"><g fill="none" stroke="#141416" stroke-width="7" stroke-linejoin="round" stroke-linecap="round"><path d="M-40 200l20-200h40l20 200z"/><path d="M-28 0h56M-34 60h68M-38 120h76"/><rect x="-24" y="-50" width="48" height="50"/><path d="M-30-50l30-30 30 30"/><path d="M-70-30l-40-10M70-30l40-10M-60-70l-30-30M60-70l30-30"/></g></g><text x="400" y="560" font-family="Helvetica, Arial, sans-serif" font-size="40" font-weight="700" fill="#f3f1ea" text-anchor="middle" letter-spacing="10" >FALL TOUR 2026</text><text x="400" y="600" font-family="Helvetica, Arial, sans-serif" font-size="16" font-weight="700" fill="#f3f1ea" text-anchor="middle" letter-spacing="4" >SCREEN PRINT · 150</text></svg>
